<?xml version="1.0" standalone="no"?>
<!DOCTYPE svg PUBLIC "-//W3C//DTD SVG 20010904//EN"
 "http://www.w3.org/TR/2001/REC-SVG-20010904/DTD/svg10.dtd">
<svg version="1.0" xmlns="http://www.w3.org/2000/svg"
 width="802.000000pt" height="802.000000pt" viewBox="0 0 802.000000 802.000000"
 preserveAspectRatio="xMidYMid meet">
<metadata>
Created by potrace 1.14, written by Peter Selinger 2001-2017
</metadata>
<g transform="translate(0.000000,802.000000) scale(0.100000,-0.100000)"
fill="#000000" stroke="none">
<path d="M890 7993 c-145 -26 -312 -93 -428 -172 -217 -147 -373 -382 -433
-651 -18 -82 -19 -184 -18 -3165 0 -3050 0 -3081 20 -3165 49 -206 124 -354
256 -499 125 -138 328 -258 518 -305 l100 -25 3125 2 3125 2 80 24 c99 28 241
95 322 150 60 41 176 148 222 205 62 76 161 255 161 290 0 6 4 16 9 21 5 6 19
51 32 100 l24 90 2 3075 c1 1914 -1 3096 -7 3130 -20 111 -34 167 -66 245
-121 305 -365 525 -691 623 l-88 27 -3120 1 c-1716 1 -3131 -1 -3145 -3z"/>
</g>
</svg>
