<?xml version="1.0" standalone="no"?>
<!DOCTYPE svg PUBLIC "-//W3C//DTD SVG 20010904//EN"
 "http://www.w3.org/TR/2001/REC-SVG-20010904/DTD/svg10.dtd">
<svg version="1.0" xmlns="http://www.w3.org/2000/svg"
 width="800.000000pt" height="800.000000pt" viewBox="0 0 800.000000 800.000000"
 preserveAspectRatio="xMidYMid meet">
<metadata>
Created by potrace 1.14, written by Peter Selinger 2001-2017
</metadata>
<g transform="translate(0.000000,800.000000) scale(0.100000,-0.100000)"
fill="#000000" stroke="none">
<path d="M899 7996 c-2 -2 -26 -7 -53 -10 -107 -15 -279 -87 -396 -166 -229
-155 -401 -431 -440 -706 -8 -57 -10 -921 -8 -3154 l3 -3075 23 -80 c57 -202
148 -364 281 -496 117 -116 301 -226 433 -260 162 -41 24 -39 3287 -37 l3106
3 85 23 c227 63 428 198 563 378 99 132 151 246 204 453 4 14 7 1412 8 3106 2
2564 0 3093 -12 3160 -47 277 -206 527 -437 685 -100 70 -245 134 -346 155
-14 3 -45 10 -70 15 -43 9 -6222 15 -6231 6z"/>
</g>
</svg>
